<?xml version="1.0" encoding="iso-8859-1"?>
<!-- Uploaded to: SVG Repo, www.svgrepo.com, Generator: SVG Repo Mixer Tools -->
<!DOCTYPE svg PUBLIC "-//W3C//DTD SVG 1.1//EN" "http://www.w3.org/Graphics/SVG/1.1/DTD/svg11.dtd">
<svg fill="#2A7F83" height="800px" width="800px" version="1.1" id="Capa_1" xmlns="http://www.w3.org/2000/svg" xmlns:xlink="http://www.w3.org/1999/xlink" 
	 viewBox="0 0 218.653 218.653" xml:space="preserve">
<path d="M187.746,69.569c2.097-33.008-17.022-55.305-36.901-62.76C132.893,0.078,109.56,0,109.327,0S85.76,0.078,67.809,6.81
	c-19.879,7.455-38.998,29.752-36.901,62.76c1.497,23.554,24.113,61.64,49.566,84.435c-24.964,20.948-36.389,32.125-36.89,32.617
	c-1.059,1.04-1.601,2.496-1.479,3.975s0.892,2.827,2.105,3.682l33.333,23.465c1.125,0.792,2.526,1.083,3.879,0.81
	c1.35-0.275,2.525-1.096,3.251-2.267c0.099-0.16,9.332-15.003,24.653-34.278c15.321,19.275,24.555,34.118,24.653,34.278
	c0.726,1.171,1.901,1.991,3.251,2.267c0.332,0.068,0.667,0.102,1.001,0.102c1.022,0,2.029-0.313,2.878-0.911l33.333-23.465
	c1.214-0.854,1.984-2.203,2.105-3.682s-0.421-2.935-1.479-3.975c-0.501-0.492-11.926-11.669-36.89-32.617
	C163.632,131.209,186.249,93.123,187.746,69.569z M157.848,69.251c-3.573,22.087-22.129,46.269-48.521,63.313
	c-26.394-17.044-44.947-41.226-48.521-63.313c-1.743-10.771,0.379-20.194,6.135-27.253c13.239-16.237,34.861-17.845,41.584-17.931
	c0.114,0.006,0.227,0.007,0.339,0.003l0.425-0.007l0.501,0.007c0.114,0.002,0.229,0.001,0.342-0.003
	c6.725,0.086,28.345,1.694,41.583,17.931C157.469,49.057,159.591,58.48,157.848,69.251z"/>
</svg>