<svg fill="#2A7F83" version="1.1" id="Ebene_1" xmlns="http://www.w3.org/2000/svg" xmlns:xlink="http://www.w3.org/1999/xlink" viewBox="-1.92 -1.92 67.84 67.84" enable-background="new 0 0 64 64" xml:space="preserve" stroke="#2A7F83" stroke-width="1.3439999999999999" transform="matrix(1, 0, 0, 1, 0, 0)rotate(0)"><g id="SVGRepo_bgCarrier" stroke-width="0" transform="translate(0,0), scale(1)"></g><g id="SVGRepo_tracerCarrier" stroke-linecap="round" stroke-linejoin="round" stroke="" stroke-width="0.256"></g><g id="SVGRepo_iconCarrier"> <g> <path d="M21,42c5.071,0,9.728-1.808,13.361-4.811L38.172,41l-1.586,1.586c-0.781,0.781-0.781,2.047,0,2.828l18,18 C54.977,63.805,55.488,64,56,64s1.023-0.195,1.414-0.586l6-6c0.781-0.781,0.781-2.047,0-2.828l-18-18 c-0.781-0.781-2.047-0.781-2.828,0L41,38.172l-3.811-3.811C40.192,30.728,42,26.071,42,21C42,9.42,32.579,0,21,0S0,9.42,0,21 S9.421,42,21,42z M59.172,56L56,59.171L40.828,44L44,40.829L59.172,56z M21,4c9.374,0,17,7.626,17,17s-7.626,17-17,17 S4,30.374,4,21S11.626,4,21,4z"></path> <path d="M12,23h7v7c0,1.104,0.896,2,2,2s2-0.896,2-2v-7h7c1.104,0,2-0.896,2-2s-0.896-2-2-2h-7v-7c0-1.104-0.896-2-2-2 s-2,0.896-2,2v7h-7c-1.104,0-2,0.896-2,2S10.896,23,12,23z"></path> </g> </g></svg>