<?xml version="1.0" encoding="iso-8859-1"?>
<!-- Uploaded to: SVG Repo, www.svgrepo.com, Generator: SVG Repo Mixer Tools -->
<!DOCTYPE svg PUBLIC "-//W3C//DTD SVG 1.1//EN" "http://www.w3.org/Graphics/SVG/1.1/DTD/svg11.dtd">
<svg fill="#000000" height="800px" width="800px" version="1.1" id="Capa_1" xmlns="http://www.w3.org/2000/svg" xmlns:xlink="http://www.w3.org/1999/xlink" 
	 viewBox="0 0 200.22 200.22" xml:space="preserve">
<path d="M195.406,53.318L146.902,4.815c-6.42-6.42-16.828-6.42-23.248,0L4.815,123.654c-6.42,6.42-6.42,16.828,0,23.248
	l48.504,48.504c6.42,6.42,16.828,6.42,23.248,0l118.84-118.839C201.825,70.146,201.825,59.738,195.406,53.318z M47.012,143.532
	c-5.769,5.769-15.122,5.769-20.89,0c-5.769-5.769-5.769-15.122,0-20.891c5.769-5.769,15.122-5.769,20.89,0
	C52.781,128.41,52.781,137.763,47.012,143.532z M77.579,174.099c-5.769,5.769-15.122,5.769-20.891,0
	c-5.769-5.769-5.769-15.122,0-20.89c5.769-5.769,15.122-5.769,20.891,0C83.347,158.977,83.347,168.33,77.579,174.099z
	 M79.185,111.358c-5.769,5.769-15.122,5.769-20.891,0c-5.769-5.769-5.769-15.122,0-20.89c5.769-5.769,15.122-5.769,20.891,0
	C84.954,96.237,84.954,105.59,79.185,111.358z M109.752,141.926c-5.769,5.769-15.122,5.769-20.891,0
	c-5.769-5.769-5.769-15.122,0-20.891c5.769-5.769,15.122-5.769,20.891,0C115.521,126.804,115.521,136.157,109.752,141.926z
	 M111.358,79.185c-5.769,5.769-15.122,5.769-20.89,0c-5.769-5.769-5.769-15.122,0-20.891s15.122-5.769,20.89,0
	C117.127,64.063,117.127,73.416,111.358,79.185z M141.926,109.752c-5.769,5.769-15.122,5.769-20.891,0
	c-5.769-5.769-5.769-15.122,0-20.89c5.769-5.769,15.122-5.769,20.891,0C147.694,94.63,147.694,103.983,141.926,109.752z
	 M143.532,47.012c-5.769,5.769-15.122,5.769-20.891,0c-5.769-5.769-5.769-15.122,0-20.891c5.769-5.769,15.122-5.769,20.891,0
	C149.301,31.89,149.301,41.243,143.532,47.012z M174.099,77.579c-5.769,5.769-15.122,5.769-20.891,0
	c-5.769-5.769-5.769-15.122,0-20.891c5.769-5.769,15.122-5.769,20.891,0C179.868,62.457,179.868,71.81,174.099,77.579z"/>
</svg>